<?xml version="1.0"?><svg id="Layer_1" xmlns="http://www.w3.org/2000/svg" viewBox="0 0 517 146"><defs></defs><path class="cls-1" d="M173.62,86.33c-1.33-.16-3.8-.45-3.8-1.17,0-1.29,2.89-1.35,3.47-1.35,1.8,0,3.57.87,4.05,1.65l.79,1.31,6.5-3.01-.77-1.57c-1.62-3.31-4.31-4.57-6.61-5.12v-3.14h-.01v-22.9l-7.54,1.83v21.08h0v3.1c-4.71,1.03-7.56,4.05-7.56,8.13,0,7.25,6.73,8,10.74,8.45,3.12.37,4.23,1.06,4.23,1.59,0,1.75-3.27,1.84-3.93,1.84-2.15,0-4.36-1.07-4.91-2.38l-.67-1.58-7,2.97.67,1.58c1.45,3.4,4.42,5.64,8.44,6.39v3.32h7.56v-3.48c4.62-.92,7.73-4.32,7.73-8.67,0-7.47-7.1-8.35-11.36-8.87Z"></path><path class="cls-2" d="M39.31,64.37v29.79c0,2.9,2.03,3.41,4.08,4.15,11.6,4.2,31.67,12.52,54.67,12.52s41.69-8.32,53.56-12.52c2.06-.73,4.08-1.25,4.08-4.15v-29.64l-57.64,16.77-58.75-16.93Z"></path><polygon class="cls-2" points="98.06 23.87 98.04 23.87 6.6 48.19 39.31 57.61 39.31 57.61 98.06 74.54 155.69 57.77 188.61 48.19 98.06 23.87"></polygon><path class="cls-2" d="M251.47,34.67c-7.73,0-14.12,2.21-19.09,6.6v-4.84h-17.42v73.28h17.42v-38.67c0-12.57,5.96-19.49,16.79-19.49,8.99,0,13.94,5.14,13.94,14.49v43.67h17.42v-44.35c0-18.64-11.41-30.69-29.06-30.69Z"></path><path class="cls-2" d="M345.96,36.42v6.74c-5.96-5.53-13.75-8.5-22.6-8.5-20.92,0-37.31,16.69-37.31,37.99s16.39,38.13,37.31,38.13c8.82,0,16.62-3.01,22.6-8.61v1.86c0,11.19-7.39,17.87-19.76,17.87-13.05,0-17.28-5.22-19.51-9.78l-1.32-2.69-15.26,8.63,1.26,2.42c6.03,11.62,18.31,18.02,34.56,18.02,9.81,0,18.91-3.04,25.63-8.55,7.64-6.27,11.68-15.24,11.68-25.92V36.42h-17.28ZM345.96,72.66c0,12.11-9.14,21.25-21.25,21.25s-21.25-9.14-21.25-21.25,9.14-21.11,21.25-21.11,21.25,9.08,21.25,21.11Z"></path><path class="cls-1" d="M414.58,34.67c-8.92,0-16.76,2.97-22.74,8.5v-6.75h-17.42v100.33h17.42v-33.8c5.98,5.53,13.82,8.5,22.74,8.5,20.43,0,37.04-17.22,37.04-38.4s-16.62-38.39-37.04-38.39ZM434.2,73.06c0,12.19-9.08,21.38-21.11,21.38s-21.25-9.19-21.25-21.38,9.14-21.38,21.25-21.38,21.11,9.19,21.11,21.38Z"></path><path class="cls-1" d="M492.98,24.62l3.05.25V7.81l-2.63-.18c-10.36-.72-18.53,1.61-24.24,6.94-5.34,4.98-8.24,12.53-8.39,21.86h-10.83v17.01h10.82v56.26h17.42v-56.26h17.85v-17.01h-17.84c.11-4.34,1.17-7.38,3.21-9.26,2.3-2.12,6.2-2.97,11.58-2.54Z"></path><path class="cls-1" d="M173.62,86.33c-1.33-.16-3.8-.45-3.8-1.17,0-1.29,2.89-1.35,3.47-1.35,1.8,0,3.57.87,4.05,1.65l.79,1.31,6.5-3.01-.77-1.57c-1.62-3.31-4.31-4.57-6.61-5.12v-3.14h-.01v-22.9l-7.54,1.83v21.08h0v3.1c-4.71,1.03-7.56,4.05-7.56,8.13,0,7.25,6.73,8,10.74,8.45,3.12.37,4.23,1.06,4.23,1.59,0,1.75-3.27,1.84-3.93,1.84-2.15,0-4.36-1.07-4.91-2.38l-.67-1.58-7,2.97.67,1.58c1.45,3.4,4.42,5.64,8.44,6.39v3.32h7.56v-3.48c4.62-.92,7.73-4.32,7.73-8.67,0-7.47-7.1-8.35-11.36-8.87Z"></path><path class="cls-2" d="M39.31,64.37v29.79c0,2.9,2.03,3.41,4.08,4.15,11.6,4.2,31.67,12.52,54.67,12.52s41.69-8.32,53.56-12.52c2.06-.73,4.08-1.25,4.08-4.15v-29.64l-57.64,16.77-58.75-16.93Z"></path><polygon class="cls-2" points="98.06 23.87 98.04 23.87 6.6 48.19 39.31 57.61 39.31 57.61 98.06 74.54 155.69 57.77 188.61 48.19 98.06 23.87"></polygon><path class="cls-2" d="M251.47,34.67c-7.73,0-14.12,2.21-19.09,6.6v-4.84h-17.42v73.28h17.42v-38.67c0-12.57,5.96-19.49,16.79-19.49,8.99,0,13.94,5.14,13.94,14.49v43.67h17.42v-44.35c0-18.64-11.41-30.69-29.06-30.69Z"></path><path class="cls-2" d="M345.96,36.42v6.74c-5.96-5.53-13.75-8.5-22.6-8.5-20.92,0-37.31,16.69-37.31,37.99s16.39,38.13,37.31,38.13c8.82,0,16.62-3.01,22.6-8.61v1.86c0,11.19-7.39,17.87-19.76,17.87-13.05,0-17.28-5.22-19.51-9.78l-1.32-2.69-15.26,8.63,1.26,2.42c6.03,11.62,18.31,18.02,34.56,18.02,9.81,0,18.91-3.04,25.63-8.55,7.64-6.27,11.68-15.24,11.68-25.92V36.42h-17.28ZM345.96,72.66c0,12.11-9.14,21.25-21.25,21.25s-21.25-9.14-21.25-21.25,9.14-21.11,21.25-21.11,21.25,9.08,21.25,21.11Z"></path><path class="cls-1" d="M414.58,34.67c-8.92,0-16.76,2.97-22.74,8.5v-6.75h-17.42v100.33h17.42v-33.8c5.98,5.53,13.82,8.5,22.74,8.5,20.43,0,37.04-17.22,37.04-38.4s-16.62-38.39-37.04-38.39ZM434.2,73.06c0,12.19-9.08,21.38-21.11,21.38s-21.25-9.19-21.25-21.38,9.14-21.38,21.25-21.38,21.11,9.19,21.11,21.38Z"></path><path class="cls-1" d="M492.98,24.62l3.05.25V7.81l-2.63-.18c-10.36-.72-18.53,1.61-24.24,6.94-5.34,4.98-8.24,12.53-8.39,21.86h-10.83v17.01h10.82v56.26h17.42v-56.26h17.85v-17.01h-17.84c.11-4.34,1.17-7.38,3.21-9.26,2.3-2.12,6.2-2.97,11.58-2.54Z"></path></svg>